<svg width="40" height="40" viewBox="0 0 40 40" fill="none" xmlns="http://www.w3.org/2000/svg">
<g clip-path="url(#clip0_259_300)">
<path d="M33.9201 36.044C34.5341 35.151 34.8381 34.035 34.6811 32.861C33.9151 27.144 32.6811 18.165 31.9161 13.837C30.7531 7.254 26.2511 3 19.9991 3C13.7471 3 9.24512 7.254 8.08212 13.837C7.31712 18.166 6.08312 27.144 5.31712 32.861C5.16312 34.013 5.45412 35.107 6.04512 35.992C6.65212 36.537 7.34412 37 8.51812 37C11.3921 37 11.3921 34.242 14.2651 34.242C17.1381 34.242 17.1381 37 20.0111 37C22.8841 37 22.8841 34.242 25.7571 34.242C28.6301 34.242 28.6301 37 31.5031 37C32.6401 37 33.3251 36.566 33.9181 36.044H33.9201Z" fill="#E0E0E0"/>
<path d="M8.30805 24.693L2.18805 17.757C0.851049 16.242 2.12905 13.822 3.93805 14.443L9.61005 16.361L8.30905 24.693H8.30805Z" fill="#E0E0E0"/>
<path d="M31.6921 24.693L37.8121 17.757C39.1491 16.242 37.8711 13.822 36.0621 14.443L30.3901 16.361L31.6921 24.693Z" fill="#E0E0E0"/>
<path d="M16.3805 13.769C17.3497 13.769 18.1355 12.9832 18.1355 12.014C18.1355 11.0447 17.3497 10.259 16.3805 10.259C15.4112 10.259 14.6255 11.0447 14.6255 12.014C14.6255 12.9832 15.4112 13.769 16.3805 13.769Z" fill="black"/>
<path d="M23.7047 13.8299C24.674 13.8299 25.4597 13.0442 25.4597 12.0749C25.4597 11.1057 24.674 10.3199 23.7047 10.3199C22.7354 10.3199 21.9497 11.1057 21.9497 12.0749C21.9497 13.0442 22.7354 13.8299 23.7047 13.8299Z" fill="black"/>
<path d="M26.2993 16.78C26.1643 16.587 25.9193 16.507 25.6953 16.57C22.2203 17.627 17.7693 17.59 14.3123 16.475C14.0883 16.404 13.8433 16.483 13.7053 16.675C13.5683 16.866 13.5703 17.124 13.7113 17.313C15.1263 19.214 17.4663 20.36 19.9713 20.381C22.4773 20.402 24.8363 19.295 26.2813 17.418C26.4253 17.231 26.4333 16.973 26.2993 16.78Z" fill="black"/>
<path d="M22.5582 19.069V17.195C20.8522 17.389 19.0702 17.373 17.3692 17.144L17.3672 19.894V19.905C17.3672 19.911 17.3682 19.916 17.3682 19.921C17.3682 19.925 17.3692 19.93 17.3692 19.934C17.3742 21.309 18.5172 22.428 19.9402 22.44C21.3732 22.452 22.5452 21.336 22.5562 19.948L22.5622 19.069H22.5572H22.5582Z" fill="#F93052"/>
</g>
<defs>
<clipPath id="clip0_259_300">
<rect width="40" height="40" fill="white"/>
</clipPath>
</defs>
</svg>
