<svg width="14" height="14" viewBox="0 0 14 14" fill="none" xmlns="http://www.w3.org/2000/svg">
<g clip-path="url(#clip0_89_2609)">
<path d="M4.96631 8.17847C5.02196 8.27122 5.08216 8.36152 5.14691 8.44937C5.08251 8.36152 5.02196 8.27157 4.96631 8.17847Z" fill="#3182F6"/>
<path d="M6.89796 9.71463L5.50146 11.1115C5.77481 10.8381 6.21792 10.8381 6.49127 11.1115C6.76462 11.3848 6.76462 11.8283 6.49127 12.1013L8.50762 10.0846C8.60317 9.98903 8.69067 9.88753 8.77362 9.78323C8.51077 9.84553 8.24021 9.88123 7.96336 9.88123C7.59622 9.88123 7.23816 9.82313 6.89796 9.71463Z" fill="#0A37C7"/>
<path d="M9.07866 5.89612C9.25366 6.22792 9.13781 6.64127 8.80951 6.82957C8.47421 7.02207 8.04616 6.90587 7.85401 6.57057C7.84771 6.55972 7.83966 6.54992 7.83301 6.53907C8.02621 6.86072 8.13156 7.22857 8.13156 7.61357C8.13156 7.91807 8.06506 8.21137 7.94256 8.48052C7.94956 8.48052 7.95656 8.48157 7.96356 8.48157C8.52321 8.48157 9.04926 8.26387 9.44476 7.86802L9.52281 7.79032C9.52561 7.73152 9.53156 7.67307 9.53156 7.61392C9.53156 7.00177 9.37266 6.41447 9.07866 5.89612Z" fill="#0A37C7"/>
<path d="M6.49147 11.1115C6.21812 10.8381 5.77502 10.8381 5.50167 11.1115C4.68512 11.9277 3.35582 11.928 2.53857 11.1115C1.72202 10.2946 1.72202 8.96526 2.53857 8.14836L4.47722 6.21006L4.55527 6.13236C4.95112 5.73651 5.47717 5.51881 6.03647 5.51881C6.04347 5.51881 6.05047 5.51986 6.05747 5.51986C6.60907 5.52546 7.12672 5.74176 7.51767 6.13236C7.57752 6.19221 7.63212 6.25626 7.68392 6.32206C7.69792 6.33991 7.71052 6.35775 7.72382 6.37595C7.76267 6.4288 7.79907 6.48341 7.83267 6.53906C7.83897 6.54991 7.84737 6.55971 7.85367 6.57056C8.04617 6.90586 8.47387 7.02206 8.80917 6.82956C9.13712 6.64126 9.25332 6.22791 9.07832 5.89611C9.07447 5.88876 9.07237 5.88105 9.06852 5.87371C9.05802 5.8555 9.04472 5.83976 9.03387 5.82191C8.97822 5.72881 8.91767 5.63816 8.85292 5.55031C8.82982 5.51881 8.80742 5.48731 8.78327 5.45651C8.69717 5.34731 8.60652 5.24126 8.50747 5.14221C8.10707 4.74181 7.62617 4.45236 7.10187 4.28541C6.76167 4.17691 6.40362 4.1188 6.03647 4.1188C5.75962 4.1188 5.48907 4.15451 5.22622 4.21681C4.60287 4.36416 4.02957 4.67811 3.56547 5.14256L1.54877 7.15891C0.186218 8.52181 0.186218 10.7391 1.54877 12.1016C2.23022 12.7827 3.12517 13.1236 4.02047 13.1236C4.91577 13.1236 5.81002 12.7827 6.49182 12.1016C6.76517 11.8286 6.76517 11.3852 6.49182 11.1118L6.49147 11.1115Z" fill="#185DEE"/>
<path d="M12.4532 6.84251L10.4337 8.85851C9.97173 9.32051 9.39773 9.63551 8.77473 9.78251C8.51223 9.84551 8.23923 9.88051 7.96273 9.88051C7.59523 9.88051 7.23823 9.82451 6.89873 9.71601C6.67123 9.64251 6.45073 9.54451 6.24073 9.42551C6.21973 9.41151 6.19523 9.39751 6.17073 9.38351C6.07973 9.32751 5.98873 9.26801 5.89773 9.20151C5.86973 9.18051 5.83823 9.15601 5.80673 9.13501C5.69823 9.04751 5.59323 8.95651 5.49173 8.85851C5.39373 8.75701 5.30273 8.65201 5.21523 8.54351C5.19423 8.51201 5.16973 8.48051 5.14523 8.44901C5.08223 8.36151 5.02273 8.27051 4.96673 8.17951C4.95623 8.16201 4.94223 8.14451 4.93173 8.12701C4.92823 8.12001 4.92473 8.10951 4.92123 8.10251C4.62723 7.58451 4.46973 7.00001 4.46973 6.38751C4.46973 6.32801 4.47323 6.26851 4.47673 6.20901L4.55373 6.13201C4.95273 5.73651 5.47773 5.51951 6.03773 5.51951H6.05873C5.93623 5.78901 5.86973 6.08301 5.86973 6.38751C5.86973 6.77251 5.97473 7.14001 6.16723 7.46201C6.20223 7.51801 6.23723 7.57051 6.27573 7.62301C6.28973 7.64401 6.30373 7.66151 6.31773 7.67901C6.36673 7.74551 6.42273 7.80851 6.48223 7.86801C6.54173 7.92751 6.60473 7.98351 6.67123 8.03251C6.68873 8.04651 6.70623 8.06051 6.72723 8.07451C6.77973 8.11301 6.83223 8.14801 6.88823 8.18301C7.20673 8.37201 7.56373 8.47701 7.94173 8.48051H7.96273C8.52273 8.48051 9.04773 8.26351 9.44673 7.86801L9.52373 7.79101L11.4627 5.85201C12.2782 5.03301 12.2782 3.70651 11.4627 2.88751C10.6437 2.07201 9.31723 2.07201 8.49823 2.88751L7.91023 3.47901L7.53923 3.85001L7.10173 4.28401C6.76223 4.17551 6.40523 4.11951 6.03773 4.11951C5.76123 4.11951 5.48823 4.15451 5.22573 4.21751C5.30973 4.11251 5.39723 4.01101 5.49173 3.91651L6.54873 2.85951L7.50773 1.89701C8.86923 0.53551 11.0882 0.53551 12.4532 1.89701C13.8147 3.26201 13.8147 5.47751 12.4532 6.84251Z" fill="#3182F6"/>
</g>
<defs>
<clipPath id="clip0_89_2609">
<rect width="14" height="14" fill="white"/>
</clipPath>
</defs>
</svg>
