<svg width="15" height="14" viewBox="0 0 15 14" fill="none" xmlns="http://www.w3.org/2000/svg">
<mask id="mask0_89_2643" style="mask-type:alpha" maskUnits="userSpaceOnUse" x="0" y="0" width="15" height="14">
<rect x="0.666992" width="14" height="14" fill="#828282"/>
</mask>
<g mask="url(#mask0_89_2643)">
<rect x="0.666992" width="14" height="14" fill="#FFEB00"/>
<path d="M3.16699 4.54375C3.16699 4.35395 3.28732 4.11999 3.44188 4.02406L7.38949 1.57195C7.54406 1.47602 7.7958 1.47602 7.95036 1.57195L11.8934 4.02406C12.048 4.11999 12.167 4.35395 12.167 4.54375V9.45625C12.167 9.64605 12.0473 9.88001 11.8928 9.97594L7.94547 12.4281C7.7909 12.524 7.53949 12.524 7.3846 12.4281L3.44123 9.97559C3.28667 9.87966 3.16699 9.6457 3.16699 9.45591V4.54375Z" fill="#1977D1"/>
<path d="M7.85103 6.94726V8.1057C7.85103 8.1057 7.87917 8.31307 8.11713 8.11155L10.4609 6.5033C10.4609 6.5033 10.5464 6.4686 10.5464 6.27293C10.5464 6.27293 10.5512 6.16145 10.4686 6.07297C10.3856 5.98449 8.07619 4.43626 8.07619 4.43626C8.07619 4.43626 7.96105 4.40157 7.96105 4.58243V5.81688H5.68089C5.68089 5.81688 5.14648 5.78492 5.14648 6.31542V8.84357L5.82162 9.27191C5.82162 9.27191 6.09686 9.49097 6.09686 9.22981V7.14176C6.09686 7.14176 6.12062 6.94765 6.41962 6.94765H7.96105" fill="#FFEB00"/>
</g>
</svg>
