<svg width="24" height="24" viewBox="0 0 24 24" fill="none" xmlns="http://www.w3.org/2000/svg">
<g clip-path="url(#clip0_74_885)">
<path d="M5.87215 23.7534C5.71075 23.7534 5.54695 23.712 5.39695 23.625C4.94095 23.3622 4.78435 22.7796 5.04835 22.3236L9.49915 14.6142C9.76195 14.1588 10.344 14.0016 10.8005 14.2656C11.2566 14.5284 11.4132 15.111 11.1492 15.567L6.69835 23.2764C6.52195 23.5824 6.20215 23.7534 5.87215 23.7534Z" fill="#4B596A"/>
<path d="M20.9129 5.9226L12.9701 1.3368C12.2969 0.947999 11.4557 1.434 11.4557 2.211V3.6252C11.4557 5.4288 10.4939 7.095 8.93214 7.9968L3.08754 11.3712C2.41434 11.76 2.41434 12.7314 3.08754 13.1196L15.6497 20.3724C16.3229 20.7612 17.1641 20.2752 17.1641 19.4982V12.7494C17.1641 10.9458 18.1259 9.2796 19.6877 8.3778L20.9129 7.6704C21.5861 7.2816 21.5861 6.3102 20.9129 5.922V5.9226Z" fill="#EF4452"/>
</g>
<defs>
<clipPath id="clip0_74_885">
<rect width="24" height="24" rx="8" fill="white"/>
</clipPath>
</defs>
</svg>
