<svg width="16" height="16" viewBox="0 0 16 16" fill="none" xmlns="http://www.w3.org/2000/svg">
<g clip-path="url(#clip0_89_1957)">
<path d="M3.91452 15.8356C3.80692 15.8356 3.69772 15.808 3.59772 15.75C3.29372 15.5748 3.18932 15.1864 3.36532 14.8824L6.33252 9.74278C6.50772 9.43918 6.89572 9.33438 7.20012 9.51038C7.50412 9.68558 7.60852 10.074 7.43252 10.378L4.46532 15.5176C4.34772 15.7216 4.13452 15.8356 3.91452 15.8356Z" fill="#4B596A"/>
<path d="M13.9419 3.94839L8.64668 0.891189C8.19788 0.631989 7.63708 0.955989 7.63708 1.47399V2.41679C7.63708 3.61919 6.99588 4.72999 5.95468 5.33119L2.05828 7.58079C1.60948 7.83999 1.60948 8.48759 2.05828 8.74639L10.4331 13.5816C10.8819 13.8408 11.4427 13.5168 11.4427 12.9988V8.49959C11.4427 7.29719 12.0839 6.18639 13.1251 5.58519L13.9419 5.11359C14.3907 4.85439 14.3907 4.20679 13.9419 3.94799V3.94839Z" fill="#DFE0E1"/>
</g>
<defs>
<clipPath id="clip0_89_1957">
<rect width="16" height="16" rx="8" fill="white"/>
</clipPath>
</defs>
</svg>
