<svg width="50" height="50" viewBox="0 0 50 50" fill="none" xmlns="http://www.w3.org/2000/svg">
<rect width="50" height="50" rx="10" fill="#FFDDC8"/>
<path d="M15.04 23.22C15.78 19.16 15.98 17.3 15.98 16.26C15.98 14.8 15.68 14.46 13.9 14.46C11.5 14.46 10.66 14.56 6.04 15.06L5.6 9.18C9.56 8.38 12.28 8.16 15.24 8.16C21.58 8.16 23.2 9.58 23.2 15.06C23.2 17.7 22.74 20.66 22.06 23.74L15.04 23.22ZM35.6023 23.9C29.8623 23.9 26.3023 21.06 26.1023 16.38H33.1223C33.2623 17.44 34.1423 18.3 35.6023 18.3C37.1823 18.3 38.1023 17.28 38.1023 15.98C38.1023 14.68 37.2023 13.7 35.6023 13.7C34.1223 13.7 33.1423 14.58 33.1223 16.18L26.1023 15.58C26.3223 10.92 29.8823 8.1 35.6023 8.1C41.4823 8.1 45.1023 11.1 45.1023 16C45.1023 20.9 41.4823 23.9 35.6023 23.9ZM15.04 43.22C15.78 39.16 15.98 37.3 15.98 36.26C15.98 34.8 15.68 34.46 13.9 34.46C11.5 34.46 10.66 34.56 6.04 35.06L5.6 29.18C9.56 28.38 12.28 28.16 15.24 28.16C21.58 28.16 23.2 29.58 23.2 35.06C23.2 37.7 22.74 40.66 22.06 43.74L15.04 43.22ZM27.0023 33.84H37.3423C37.4423 33.6 37.5023 33.36 37.5023 33.12C37.5023 32.66 37.1223 32.46 36.3023 32.46C34.7023 32.46 33.2023 32.5 27.4823 32.72L27.2823 28.56C30.0823 28.32 34.2023 28.16 36.8223 28.16C42.2823 28.16 43.9623 28.94 43.9623 31.46C43.9623 32.18 43.8423 32.98 43.5823 33.84H44.3623V37.94H34.0823C34.0623 38.08 34.0623 38.24 34.0623 38.42C34.0623 39.24 34.3223 39.44 35.4823 39.44C37.1823 39.44 39.6823 39.3 44.4023 39.02L44.6023 43.24C41.4223 43.62 37.6423 43.84 34.8423 43.84C29.6023 43.84 27.4823 42.8 27.4823 40.28C27.4823 39.56 27.5823 38.72 27.7623 37.94H27.0023V33.84Z" fill="#FF6002"/>
</svg>
