<svg width="180" height="43" viewBox="0 0 180 43" fill="none" xmlns="http://www.w3.org/2000/svg">
<path d="M157.719 19.7568C160.023 19.7568 161.205 18.8473 161.205 17.4224C161.205 15.9975 160.023 15.1183 157.719 15.1183C155.597 15.1183 154.293 16.3006 154.263 18.8473L144.076 18.2106C144.379 11.3893 149.654 8.23633 157.719 8.23633C165.995 8.23633 171.361 11.6015 171.361 17.4224C171.361 22.2428 167.784 25.2441 161.963 26.2749V27.9423L152.262 27.336V19.7568H157.719ZM152.262 34.3089V28.2455H161.963V34.3089H152.262Z" fill="#FF6002"/>
<path d="M135.978 7.50879H142.708V35.6429H135.978V23.8496H134.735V35.4913H128.065V7.50879H134.735V17.1799H135.978V7.50879ZM110.421 23.9103V17.9985H118.97C119.182 16.998 119.334 15.9975 119.334 15.3306C119.334 14.3907 119.122 14.1785 118.182 14.1785C116.666 14.1785 114.999 14.2998 111.33 14.6333L111.027 8.69115C114.271 8.2364 116.878 8.02418 119.576 8.02418C124.942 8.02418 126.489 9.26717 126.489 13.5722C126.489 14.8455 126.367 16.2098 126.064 17.9985H126.792V23.9103H118.515C118.364 25.1533 118.303 25.9718 118.303 26.6085C118.303 27.7605 118.576 28.0334 119.698 28.0334C121.092 28.0334 122.275 27.9424 127.125 27.4877L127.428 33.5207C124.215 34.1877 121.062 34.5212 118.061 34.5212C112.846 34.5212 110.875 32.9144 110.875 28.67C110.875 27.3967 111.057 25.7293 111.36 23.9103H110.421Z" fill="#FF6002"/>
<path d="M107.386 24.1831V31.1257H86.9218V32.0049H107.841V35.6429H78.5847V28.3971H99.0486V27.518H78.4331V24.1831H107.386ZM76.9172 17.574C88.9227 16.7251 89.4685 16.0581 89.4685 14.5423C89.4685 13.7844 89.044 13.4812 86.3761 13.4812C84.6177 13.4812 82.8897 13.6025 78.1299 13.9663L77.2204 8.20605C81.8589 7.59971 85.8304 7.35718 89.3775 7.35718C95.7441 7.35718 98.1088 9.11556 98.1088 13.4206C98.1088 20.3328 91.8635 23.4252 77.8267 23.4252L76.9172 17.574ZM99.3518 23.4252V7.50876H107.386V12.5111H109.508V19.484H107.386V23.4252H99.3518Z" fill="#FF6002"/>
<path d="M65.8477 7.50879H74.4881V35.6429H65.8477V7.50879ZM42.6553 21.7881H50.8408C50.9015 25.4261 51.8413 27.6089 53.8422 27.6089C55.9038 27.6089 56.8739 25.2745 56.8739 21.3333C56.8739 17.2405 55.9038 14.9061 53.8422 14.9061C51.8413 14.9061 50.9015 17.2405 50.8408 21.4849L42.6553 20.8786C42.7765 12.3595 46.5358 7.87259 53.8422 7.87259C61.3002 7.87259 65.0595 12.5111 65.0595 21.3333C65.0595 30.1556 61.2699 34.8244 53.8422 34.8244C46.5358 34.8244 42.7765 30.3375 42.6553 21.7881Z" fill="#FF6002"/>
<path d="M10.6674 24.1831H39.4685V27.518H19.0046V28.3971H39.3169V31.1257H19.0046V32.0049H39.7717V35.6429H10.6674V24.1831ZM9 17.574C21.0055 16.7251 21.5512 16.0581 21.5512 14.5423C21.5512 13.7844 21.1268 13.4812 18.4589 13.4812C16.7005 13.4812 14.9724 13.6025 10.2127 13.9663L9.30317 8.20605C13.9417 7.59971 17.9132 7.35718 21.4603 7.35718C27.8268 7.35718 30.1915 9.11556 30.1915 13.4206C30.1915 20.3328 23.9463 23.4252 9.90951 23.4252L9 17.574ZM31.4345 23.4252V7.50876H39.4685V12.5111H41.5907V19.484H39.4685V23.4252H31.4345Z" fill="#FF6002"/>
</svg>
